<?xml version="1.0" encoding="UTF-8"?>
<svg width="400px" height="79px" viewBox="0 0 400 79" version="1.1" xmlns="http://www.w3.org/2000/svg" xmlns:xlink="http://www.w3.org/1999/xlink">
    <!-- Generator: Sketch 63.1 (92452) - https://sketch.com -->
    <title>logo</title>
    <desc>Created with Sketch.</desc>
    <g id="logo" stroke="none" stroke-width="1" fill="none" fill-rule="evenodd">
        <path d="M116.5668,77.7216 L116.5668,70.4784 C112.44288,75.7152 105.7584,78.3912 97.28808,78.3912 C84.47064,78.3912 76.44744,70.4784 76.44744,59.892 C76.44744,48.8592 84.58128,42.0624 99.07128,41.9496 L116.45712,41.9496 L116.45712,40.3896 C116.45712,33.48 111.88776,29.3568 102.97224,29.3568 C97.40064,29.3568 91.38288,31.2504 85.25256,34.9272 L80.01456,24.9 C88.59552,20.1072 95.28288,17.5464 106.2036,17.5464 C121.80456,17.5464 130.61064,25.4568 130.71936,38.7168 L130.83288,77.7216 L116.5668,77.7216 Z M116.45712,56.9928 L116.45712,53.0232 L101.41224,53.0232 C93.72288,53.0232 90.15456,54.5616 90.15456,58.9992 C90.15456,64.0128 94.16904,67.2456 100.74288,67.2456 C109.10064,67.2456 115.67616,62.7888 116.45712,56.9928 L116.45712,56.9928 Z" id="Fill-11" fill="#FFFFFF"></path>
        <path d="M175.18584,17.544 L175.18584,31.5864 C162.59256,30.8064 154.90392,38.16 154.90392,48.9696 L154.90392,77.7216 L140.41776,77.7216 L140.41776,18.1008 L154.90392,18.1008 L154.90392,29.58 C158.9136,21.78 165.9336,17.6544 175.18584,17.544" id="Fill-12" fill="#FFFFFF"></path>
        <path d="M207.94896,17.6544 C190.11696,17.6544 177.63696,29.9136 177.63696,48.0792 C177.63696,66.0216 189.78096,78.2784 208.28256,78.2784 C218.75616,78.2784 227.45136,74.4888 233.35776,68.0256 L225.55536,59.892 C221.32176,64.236 215.63856,66.5784 209.50896,66.5784 C200.81616,66.5784 194.35296,61.452 192.45936,52.9824 L236.47536,52.9824 C237.92736,31.3632 228.89856,17.6544 207.94896,17.6544 M208.05936,28.9128 C216.61776,28.9128 222.36096,33.9264 223.22016,41.9472 L192.37776,41.9472 C194.09856,33.9264 199.92576,28.9128 208.05936,28.9128" id="Fill-13" fill="#FFFFFF"></path>
        <path d="M273.92016,17.6544 C256.08816,17.6544 243.60816,29.9136 243.60816,48.0792 C243.60816,66.0216 255.75456,78.2784 274.25376,78.2784 C284.72976,78.2784 293.42256,74.4888 299.32896,68.0256 L291.52656,59.892 C287.29296,64.236 281.60976,66.5784 275.48016,66.5784 C266.78736,66.5784 260.32656,61.452 258.43056,52.9824 L302.44896,52.9824 C303.89856,31.3632 294.86976,17.6544 273.92016,17.6544 M274.03296,28.9128 C282.58896,28.9128 288.33216,33.9264 289.19136,41.9472 L258.35136,41.9472 C260.07216,33.9264 265.89696,28.9128 274.03296,28.9128" id="Fill-14" fill="#FFFFFF"></path>
        <path d="M399.55536,40.8336 L399.55536,78.0528 L384.95616,78.0528 L384.95616,45.0672 C384.95616,36.6 380.52816,31.4712 374.92896,31.4712 C366.58176,31.4712 362.37216,38.94 362.37216,48.6336 L362.37216,78.0528 L347.77296,78.0528 L347.77296,45.0672 C347.77296,36.6 342.86256,31.4712 336.99696,31.4712 C327.43776,31.4712 325.07136,38.94 325.07136,48.6336 L325.07136,78.0528 L310.58736,78.0528 L310.58736,18.4344 L325.07136,18.4344 L325.11696,28.0176 C328.93296,21.7344 334.60176,17.9736 342.15936,17.8776 C351.49536,17.8776 357.87696,24.1104 359.70336,29.8032 C365.42736,20.76 371.15136,17.8776 380.18976,17.8776 C392.20896,17.8776 399.55536,26.6808 399.55536,40.8336" id="Fill-15" fill="#FFFFFF"></path>
        <path d="M39.95328,78.7848 C17.92128,78.7848 1.42108547e-14,60.8616 1.42108547e-14,38.8296 L15.2052,38.8296 C15.2052,52.4784 26.30808,63.5784 39.95328,63.5784 C44.31648,63.5784 48.60192,62.4312 52.34808,60.2592 C54.84096,58.812 57.04584,56.9568 58.90584,54.7464 L70.54128,64.536 C67.54776,68.0928 63.99456,71.0808 59.97744,73.4088 C53.91648,76.9248 46.99128,78.7848 39.95328,78.7848" id="Fill-16" fill="#FFFFFF"></path>
        <path d="M58.89936,22.9056 C55.51872,18.8904 50.8716,16.0056 45.81456,14.7768 L49.39584,0 C57.5784,1.9848 65.08296,6.6432 70.53192,13.1136 L58.89936,22.9056" id="Fill-17" fill="#FFFFFF"></path>
        <path d="M31.39392,14.2296 C31.39392,20.5104 26.30424,25.6008 20.02296,25.6008 C13.74648,25.6008 8.65392,20.5104 8.65392,14.2296 C8.65392,7.9488 13.74648,2.8584 20.02296,2.8584 C26.30424,2.8584 31.39392,7.9488 31.39392,14.2296" id="Fill-18" fill="#FFFFFF"></path>
    </g>
</svg>